;Layer: Drill PTH
;EasyEDA v6.4.7, 2020-12-21T22:23:32--5:00
;5785efef075e4ba8b8defaa2645dbc96,facf1f7924c443e9b0c18128cc6508d2,10
;Gerber Generator version 0.2
M48
METRIC,LZ,000.000
;Holesize 1 = 0.915 METRIC
T01C0.915
;Holesize 2 = 1.000 METRIC
T02C1.000
;Holesize 3 = 1.016 METRIC
T03C1.016
;Holesize 4 = 2.500 METRIC
T04C2.500
%
G05
G90
T01
X+051689Y+048260
X+058674Y+048260
X+027813Y+013335
X+030353Y+013335
X+032893Y+013335
X+027813Y+023495
X+030353Y+023495
X+032893Y+023495
X+027813Y+033909
X+030353Y+033909
X+032893Y+033909
X+027813Y+044069
X+030353Y+044069
X+032893Y+044069
T02
X+082804Y+028574G85X+082804Y+028575
X+080264Y+028574G85X+080264Y+028575
X+077724Y+028574G85X+077724Y+028575
X+075184Y+028574G85X+075184Y+028575
X+072644Y+028574G85X+072644Y+028575
X+070104Y+028574G85X+070104Y+028575
X+080264Y+046354G85X+080264Y+046355
X+077724Y+046354G85X+077724Y+046355
X+075184Y+046354G85X+075184Y+046355
X+072644Y+046354G85X+072644Y+046355
T03
X+038354Y+043688
X+038354Y+041148
X+038354Y+038608
X+038354Y+036068
X+038354Y+033528
X+038354Y+030988
X+038354Y+028448
X+038354Y+025908
X+038354Y+023368
X+038354Y+020828
X+038354Y+018288
X+038354Y+015748
X+038354Y+013208
X+038354Y+010668
X+040894Y+010668
X+043434Y+010668
X+045974Y+010668
X+048514Y+010668
X+051054Y+010668
X+053594Y+010668
X+053594Y+013208
X+053594Y+015748
X+053594Y+018288
X+053594Y+020828
X+053594Y+023368
X+053594Y+025908
X+053594Y+028448
X+053594Y+030988
X+053594Y+033528
X+053594Y+036068
X+053594Y+038608
X+053594Y+041148
X+053594Y+043688
T04
X+065656Y+045085G85X+065661Y+045085
X+065656Y+029845G85X+065661Y+029845
X+087246Y+045085G85X+087251Y+045085
X+087246Y+029845G85X+087251Y+029845
M30
