G04 Layer: TopLayer*
G04 EasyEDA v6.4.7, 2020-12-21T22:23:32--5:00*
G04 5785efef075e4ba8b8defaa2645dbc96,facf1f7924c443e9b0c18128cc6508d2,10*
G04 Gerber Generator version 0.2*
G04 Scale: 100 percent, Rotated: No, Reflected: No *
G04 Dimensions in millimeters *
G04 leading zeros omitted , absolute positions ,3 integer and 3 decimal *
%FSLAX33Y33*%
%MOMM*%
G90*
D02*

%ADD10C,0.254000*%
%ADD11C,0.202997*%
%ADD12C,2.999994*%
%ADD13C,3.999992*%
%ADD14C,1.930400*%
%ADD16C,1.524000*%
%ADD17C,1.879600*%

%LPD*%
G54D10*
G01X53594Y15748D02*
G01X74549Y15748D01*
G01X78613Y19812D01*
G01X78613Y27686D01*
G01X77724Y28575D01*
G01X27813Y33909D02*
G01X27813Y44069D01*
G01X27813Y23495D02*
G01X27813Y33909D01*
G01X85915Y10731D02*
G01X61023Y10731D01*
G01X54610Y4318D01*
G01X27813Y4318D01*
G01X27813Y23495D01*
G01X38354Y33528D02*
G01X37846Y33528D01*
G01X35687Y35687D01*
G01X35687Y41275D01*
G01X32893Y44069D01*
G01X38354Y30988D02*
G01X35941Y30988D01*
G01X35433Y31496D01*
G01X35306Y31496D01*
G01X32893Y33909D01*
G01X38354Y28448D02*
G01X35560Y28448D01*
G01X34544Y27432D01*
G01X34544Y25146D01*
G01X32893Y23495D01*
G01X38354Y25908D02*
G01X38100Y25908D01*
G01X35687Y23495D01*
G01X35687Y16129D01*
G01X32893Y13335D01*
G01X58753Y45037D02*
G01X58753Y25574D01*
G01X60325Y24003D01*
G01X74168Y24003D01*
G01X75311Y25146D01*
G01X75311Y28448D01*
G01X75184Y28575D01*
G01X53594Y41148D02*
G01X54864Y41148D01*
G01X61976Y48768D01*
G01X88646Y48768D01*
G01X90551Y46609D01*
G01X90805Y20447D01*
G01X85979Y10795D01*
G01X58674Y48260D02*
G01X58674Y47244D01*
G01X59563Y46355D01*
G54D11*
G01X13606Y43896D02*
G01X13515Y44081D01*
G01X13329Y44264D01*
G01X13144Y44358D01*
G01X12867Y44450D01*
G01X12407Y44450D01*
G01X12128Y44358D01*
G01X11945Y44264D01*
G01X11760Y44081D01*
G01X11668Y43896D01*
G01X11668Y43525D01*
G01X11760Y43342D01*
G01X11945Y43157D01*
G01X12128Y43065D01*
G01X12407Y42971D01*
G01X12867Y42971D01*
G01X13144Y43065D01*
G01X13329Y43157D01*
G01X13515Y43342D01*
G01X13606Y43525D01*
G01X13606Y43896D01*
G01X12961Y42362D02*
G01X11021Y42362D01*
G01X12684Y42362D02*
G01X12867Y42176D01*
G01X12961Y41993D01*
G01X12961Y41716D01*
G01X12867Y41531D01*
G01X12684Y41346D01*
G01X12407Y41254D01*
G01X12222Y41254D01*
G01X11945Y41346D01*
G01X11760Y41531D01*
G01X11668Y41716D01*
G01X11668Y41993D01*
G01X11760Y42176D01*
G01X11945Y42362D01*
G01X12407Y40645D02*
G01X12407Y39535D01*
G01X12590Y39535D01*
G01X12776Y39629D01*
G01X12867Y39720D01*
G01X12961Y39905D01*
G01X12961Y40182D01*
G01X12867Y40368D01*
G01X12684Y40551D01*
G01X12407Y40645D01*
G01X12222Y40645D01*
G01X11945Y40551D01*
G01X11760Y40368D01*
G01X11668Y40182D01*
G01X11668Y39905D01*
G01X11760Y39720D01*
G01X11945Y39535D01*
G01X12961Y38925D02*
G01X11668Y38925D01*
G01X12590Y38925D02*
G01X12867Y38648D01*
G01X12961Y38465D01*
G01X12961Y38188D01*
G01X12867Y38003D01*
G01X12590Y37909D01*
G01X11668Y37909D01*
G01X13606Y37299D02*
G01X11668Y37299D01*
G01X13606Y37299D02*
G01X13606Y36654D01*
G01X13515Y36377D01*
G01X13329Y36192D01*
G01X13144Y36101D01*
G01X12867Y36007D01*
G01X12407Y36007D01*
G01X12128Y36101D01*
G01X11945Y36192D01*
G01X11760Y36377D01*
G01X11668Y36654D01*
G01X11668Y37299D01*
G01X12961Y35397D02*
G01X11668Y35397D01*
G01X12407Y35397D02*
G01X12684Y35306D01*
G01X12867Y35120D01*
G01X12961Y34937D01*
G01X12961Y34658D01*
G01X12961Y33588D02*
G01X12867Y33771D01*
G01X12684Y33957D01*
G01X12407Y34048D01*
G01X12222Y34048D01*
G01X11945Y33957D01*
G01X11760Y33771D01*
G01X11668Y33588D01*
G01X11668Y33312D01*
G01X11760Y33126D01*
G01X11945Y32941D01*
G01X12222Y32849D01*
G01X12407Y32849D01*
G01X12684Y32941D01*
G01X12867Y33126D01*
G01X12961Y33312D01*
G01X12961Y33588D01*
G01X12961Y32240D02*
G01X11668Y32240D01*
G01X12590Y32240D02*
G01X12867Y31963D01*
G01X12961Y31777D01*
G01X12961Y31501D01*
G01X12867Y31315D01*
G01X12590Y31224D01*
G01X11668Y31224D01*
G01X12961Y30152D02*
G01X12867Y30337D01*
G01X12684Y30520D01*
G01X12407Y30614D01*
G01X12222Y30614D01*
G01X11945Y30520D01*
G01X11760Y30337D01*
G01X11668Y30152D01*
G01X11668Y29875D01*
G01X11760Y29690D01*
G01X11945Y29504D01*
G01X12222Y29413D01*
G01X12407Y29413D01*
G01X12684Y29504D01*
G01X12867Y29690D01*
G01X12961Y29875D01*
G01X12961Y30152D01*
G01X13606Y27381D02*
G01X11668Y27381D01*
G01X12684Y27381D02*
G01X12867Y27195D01*
G01X12961Y27012D01*
G01X12961Y26733D01*
G01X12867Y26550D01*
G01X12684Y26365D01*
G01X12407Y26273D01*
G01X12222Y26273D01*
G01X11945Y26365D01*
G01X11760Y26550D01*
G01X11668Y26733D01*
G01X11668Y27012D01*
G01X11760Y27195D01*
G01X11945Y27381D01*
G01X12961Y25570D02*
G01X11668Y25016D01*
G01X12961Y24462D02*
G01X11668Y25016D01*
G01X11297Y25201D01*
G01X11112Y25387D01*
G01X11021Y25570D01*
G01X11021Y25664D01*
G01X13606Y22430D02*
G01X11668Y22430D01*
G01X13606Y22430D02*
G01X13606Y21600D01*
G01X13515Y21323D01*
G01X13423Y21229D01*
G01X13238Y21137D01*
G01X13053Y21137D01*
G01X12867Y21229D01*
G01X12776Y21323D01*
G01X12684Y21600D01*
G01X12684Y22430D02*
G01X12684Y21600D01*
G01X12590Y21323D01*
G01X12499Y21229D01*
G01X12313Y21137D01*
G01X12037Y21137D01*
G01X11851Y21229D01*
G01X11760Y21323D01*
G01X11668Y21600D01*
G01X11668Y22430D01*
G01X12407Y20528D02*
G01X12407Y19418D01*
G01X12590Y19418D01*
G01X12776Y19512D01*
G01X12867Y19603D01*
G01X12961Y19789D01*
G01X12961Y20066D01*
G01X12867Y20251D01*
G01X12684Y20434D01*
G01X12407Y20528D01*
G01X12222Y20528D01*
G01X11945Y20434D01*
G01X11760Y20251D01*
G01X11668Y20066D01*
G01X11668Y19789D01*
G01X11760Y19603D01*
G01X11945Y19418D01*
G01X12961Y18808D02*
G01X11668Y18808D01*
G01X12590Y18808D02*
G01X12867Y18531D01*
G01X12961Y18348D01*
G01X12961Y18072D01*
G01X12867Y17886D01*
G01X12590Y17792D01*
G01X11668Y17792D01*
G01X13144Y14376D02*
G01X13329Y14467D01*
G01X13515Y14653D01*
G01X13606Y14838D01*
G01X13606Y15206D01*
G01X13515Y15392D01*
G01X13329Y15577D01*
G01X13144Y15669D01*
G01X12867Y15760D01*
G01X12407Y15760D01*
G01X12128Y15669D01*
G01X11945Y15577D01*
G01X11760Y15392D01*
G01X11668Y15206D01*
G01X11668Y14838D01*
G01X11760Y14653D01*
G01X11945Y14467D01*
G01X12128Y14376D01*
G01X12961Y12659D02*
G01X11668Y12659D01*
G01X12684Y12659D02*
G01X12867Y12842D01*
G01X12961Y13027D01*
G01X12961Y13304D01*
G01X12867Y13489D01*
G01X12684Y13675D01*
G01X12407Y13766D01*
G01X12222Y13766D01*
G01X11945Y13675D01*
G01X11760Y13489D01*
G01X11668Y13304D01*
G01X11668Y13027D01*
G01X11760Y12842D01*
G01X11945Y12659D01*
G01X12961Y12049D02*
G01X12037Y12049D01*
G01X11760Y11955D01*
G01X11668Y11772D01*
G01X11668Y11493D01*
G01X11760Y11310D01*
G01X12037Y11033D01*
G01X12961Y11033D02*
G01X11668Y11033D01*
G01X12961Y10424D02*
G01X11668Y10424D01*
G01X12590Y10424D02*
G01X12867Y10147D01*
G01X12961Y9961D01*
G01X12961Y9685D01*
G01X12867Y9499D01*
G01X12590Y9408D01*
G01X11668Y9408D01*
G01X13606Y8521D02*
G01X12037Y8521D01*
G01X11760Y8427D01*
G01X11668Y8242D01*
G01X11668Y8059D01*
G01X12961Y8798D02*
G01X12961Y8150D01*
G01X50002Y52468D02*
G01X49080Y52468D01*
G01X48986Y51638D01*
G01X49080Y51729D01*
G01X49357Y51823D01*
G01X49634Y51823D01*
G01X49911Y51729D01*
G01X50096Y51546D01*
G01X50187Y51269D01*
G01X50187Y51084D01*
G01X50096Y50807D01*
G01X49911Y50622D01*
G01X49634Y50530D01*
G01X49357Y50530D01*
G01X49080Y50622D01*
G01X48986Y50713D01*
G01X48895Y50899D01*
G01X50797Y52468D02*
G01X51536Y50530D01*
G01X52275Y52468D02*
G01X51536Y50530D01*
G01X53715Y52191D02*
G01X53715Y50530D01*
G01X52885Y51361D02*
G01X54546Y51361D01*
G01X57137Y52133D02*
G01X57045Y52318D01*
G01X56860Y52504D01*
G01X56677Y52595D01*
G01X56306Y52595D01*
G01X56121Y52504D01*
G01X55938Y52318D01*
G01X55844Y52133D01*
G01X55753Y51856D01*
G01X55753Y51396D01*
G01X55844Y51117D01*
G01X55938Y50934D01*
G01X56121Y50749D01*
G01X56306Y50657D01*
G01X56677Y50657D01*
G01X56860Y50749D01*
G01X57045Y50934D01*
G01X57137Y51117D01*
G01X57137Y51396D01*
G01X56677Y51396D02*
G01X57137Y51396D01*
G01X57746Y52595D02*
G01X57746Y50657D01*
G01X57746Y52595D02*
G01X59042Y50657D01*
G01X59042Y52595D02*
G01X59042Y50657D01*
G01X59651Y52595D02*
G01X59651Y50657D01*
G01X59651Y52595D02*
G01X60297Y52595D01*
G01X60573Y52504D01*
G01X60759Y52318D01*
G01X60850Y52133D01*
G01X60944Y51856D01*
G01X60944Y51396D01*
G01X60850Y51117D01*
G01X60759Y50934D01*
G01X60573Y50749D01*
G01X60297Y50657D01*
G01X59651Y50657D01*
G54D12*
G01X51689Y48260D03*
G01X58674Y48260D03*
G54D13*
G01X65659Y45085D03*
G01X65659Y29845D03*
G54D14*
G01X82804Y28575D03*
G01X80264Y28575D03*
G01X77724Y28575D03*
G01X75184Y28575D03*
G01X72644Y28575D03*
G01X70104Y28575D03*
G01X80264Y46355D03*
G01X77724Y46355D03*
G01X75184Y46355D03*
G01X72644Y46355D03*
G54D13*
G01X87249Y45085D03*
G01X87249Y29845D03*
G36*
G01X27051Y14097D02*
G01X28575Y14097D01*
G01X28575Y12573D01*
G01X27051Y12573D01*
G01X27051Y14097D01*
G37*
G54D16*
G01X30353Y13335D03*
G01X32893Y13335D03*
G36*
G01X27051Y24257D02*
G01X28575Y24257D01*
G01X28575Y22733D01*
G01X27051Y22733D01*
G01X27051Y24257D01*
G37*
G01X30353Y23495D03*
G01X32893Y23495D03*
G36*
G01X27051Y34671D02*
G01X28575Y34671D01*
G01X28575Y33147D01*
G01X27051Y33147D01*
G01X27051Y34671D01*
G37*
G01X30353Y33909D03*
G01X32893Y33909D03*
G36*
G01X27051Y44831D02*
G01X28575Y44831D01*
G01X28575Y43307D01*
G01X27051Y43307D01*
G01X27051Y44831D01*
G37*
G01X30353Y44069D03*
G01X32893Y44069D03*
G54D17*
G01X38354Y43688D03*
G01X38354Y41148D03*
G01X38354Y38608D03*
G01X38354Y36068D03*
G01X38354Y33528D03*
G01X38354Y30988D03*
G01X38354Y28448D03*
G01X38354Y25908D03*
G01X38354Y23368D03*
G01X38354Y20828D03*
G01X38354Y18288D03*
G01X38354Y15748D03*
G01X38354Y13208D03*
G01X38354Y10668D03*
G01X40894Y10668D03*
G01X43434Y10668D03*
G01X45974Y10668D03*
G01X48514Y10668D03*
G01X51054Y10668D03*
G01X53594Y10668D03*
G01X53594Y13208D03*
G01X53594Y15748D03*
G01X53594Y18288D03*
G01X53594Y20828D03*
G01X53594Y23368D03*
G01X53594Y25908D03*
G01X53594Y28448D03*
G01X53594Y30988D03*
G01X53594Y33528D03*
G01X53594Y36068D03*
G01X53594Y38608D03*
G01X53594Y41148D03*
G01X53594Y43688D03*
M00*
M02*
