G04 Layer: TopSilkLayer*
G04 EasyEDA v6.4.7, 2020-12-21T22:23:32--5:00*
G04 5785efef075e4ba8b8defaa2645dbc96,facf1f7924c443e9b0c18128cc6508d2,10*
G04 Gerber Generator version 0.2*
G04 Scale: 100 percent, Rotated: No, Reflected: No *
G04 Dimensions in millimeters *
G04 leading zeros omitted , absolute positions ,3 integer and 3 decimal *
%FSLAX33Y33*%
%MOMM*%
G90*
D02*

%ADD10C,0.254000*%
%ADD18C,0.127000*%
%ADD19C,0.203200*%
%ADD20C,0.152400*%
%ADD21C,0.097536*%
%ADD22C,0.170688*%

%LPD*%
G54D10*
G01X76467Y38554D02*
G01X76467Y36387D01*
G01X76454Y36375D01*
G01X75364Y37465D02*
G01X77543Y37465D01*
G01X63119Y29845D02*
G01X63119Y45085D01*
G01X87249Y27305D02*
G01X65659Y27305D01*
G01X89789Y45085D02*
G01X89789Y29845D01*
G01X65659Y47625D02*
G01X87249Y47625D01*
G54D18*
G01X74554Y34865D02*
G01X74554Y40064D01*
G01X78353Y40064D01*
G01X78353Y34865D01*
G01X74554Y34865D01*
G54D10*
G01X26543Y14605D02*
G01X34163Y14605D01*
G01X34163Y12065D01*
G01X26543Y12065D01*
G01X26543Y12065D01*
G01X26543Y14605D01*
G01X26543Y24765D02*
G01X34163Y24765D01*
G01X34163Y22225D01*
G01X26543Y22225D01*
G01X26543Y22225D01*
G01X26543Y24765D01*
G01X26543Y35179D02*
G01X34163Y35179D01*
G01X34163Y32639D01*
G01X26543Y32639D01*
G01X26543Y32639D01*
G01X26543Y35179D01*
G01X26543Y45339D02*
G01X34163Y45339D01*
G01X34163Y42799D01*
G01X26543Y42799D01*
G01X26543Y42799D01*
G01X26543Y45339D01*
G01X37084Y44958D02*
G01X37084Y9398D01*
G01X37084Y9398D02*
G01X54864Y9398D01*
G01X54864Y9398D02*
G01X54864Y44958D01*
G01X54864Y44958D02*
G01X37084Y44958D01*
G01X42164Y44958D02*
G01X42164Y46228D01*
G01X42164Y46228D02*
G01X49784Y46228D01*
G01X49784Y46228D02*
G01X49784Y44958D01*
G54D20*
G01X76454Y49032D02*
G01X76454Y47942D01*
G01X76796Y49032D02*
G01X76796Y47942D01*
G01X76796Y49032D02*
G01X77213Y47942D01*
G01X77627Y49032D02*
G01X77213Y47942D01*
G01X77627Y49032D02*
G01X77627Y47942D01*
G01X77970Y49032D02*
G01X77970Y48252D01*
G01X78023Y48097D01*
G01X78127Y47993D01*
G01X78282Y47942D01*
G01X78386Y47942D01*
G01X78541Y47993D01*
G01X78646Y48097D01*
G01X78699Y48252D01*
G01X78699Y49032D01*
G54D21*
G01X79670Y44889D02*
G01X79376Y44112D01*
G01X79670Y44889D02*
G01X79965Y44112D01*
G01X79485Y44371D02*
G01X79856Y44371D01*
G01X80209Y44889D02*
G01X80209Y44112D01*
G01X80209Y44889D02*
G01X80468Y44889D01*
G01X80580Y44851D01*
G01X80653Y44777D01*
G01X80689Y44704D01*
G01X80727Y44594D01*
G01X80727Y44409D01*
G01X80689Y44297D01*
G01X80653Y44223D01*
G01X80580Y44150D01*
G01X80468Y44112D01*
G01X80209Y44112D01*
G01X80971Y44889D02*
G01X80971Y44112D01*
G01X80971Y44889D02*
G01X81304Y44889D01*
G01X81413Y44851D01*
G01X81451Y44815D01*
G01X81489Y44742D01*
G01X81489Y44668D01*
G01X81451Y44594D01*
G01X81413Y44556D01*
G01X81304Y44518D01*
G01X80971Y44518D01*
G01X81230Y44518D02*
G01X81489Y44112D01*
G01X71643Y31046D02*
G01X72049Y31046D01*
G01X71828Y30751D01*
G01X71937Y30751D01*
G01X72011Y30713D01*
G01X72049Y30675D01*
G01X72085Y30566D01*
G01X72085Y30492D01*
G01X72049Y30380D01*
G01X71975Y30307D01*
G01X71864Y30269D01*
G01X71752Y30269D01*
G01X71643Y30307D01*
G01X71605Y30345D01*
G01X71569Y30419D01*
G01X72329Y30787D02*
G01X72552Y30269D01*
G01X72773Y30787D02*
G01X72552Y30269D01*
G01X73202Y30787D02*
G01X73129Y30751D01*
G01X73052Y30675D01*
G01X73017Y30566D01*
G01X73017Y30492D01*
G01X73052Y30380D01*
G01X73129Y30307D01*
G01X73202Y30269D01*
G01X73312Y30269D01*
G01X73385Y30307D01*
G01X73459Y30380D01*
G01X73497Y30492D01*
G01X73497Y30566D01*
G01X73459Y30675D01*
G01X73385Y30751D01*
G01X73312Y30787D01*
G01X73202Y30787D01*
G01X74295Y44889D02*
G01X74295Y44112D01*
G01X74295Y44889D02*
G01X74627Y44889D01*
G01X74739Y44851D01*
G01X74775Y44815D01*
G01X74813Y44742D01*
G01X74813Y44630D01*
G01X74775Y44556D01*
G01X74739Y44518D01*
G01X74627Y44483D01*
G01X74295Y44483D01*
G01X75572Y44777D02*
G01X75498Y44851D01*
G01X75389Y44889D01*
G01X75239Y44889D01*
G01X75130Y44851D01*
G01X75057Y44777D01*
G01X75057Y44704D01*
G01X75092Y44630D01*
G01X75130Y44594D01*
G01X75204Y44556D01*
G01X75425Y44483D01*
G01X75498Y44444D01*
G01X75537Y44409D01*
G01X75572Y44335D01*
G01X75572Y44223D01*
G01X75498Y44150D01*
G01X75389Y44112D01*
G01X75239Y44112D01*
G01X75130Y44150D01*
G01X75057Y44223D01*
G01X75816Y44742D02*
G01X75890Y44777D01*
G01X76001Y44889D01*
G01X76001Y44112D01*
G01X71501Y44889D02*
G01X71501Y44112D01*
G01X71501Y44889D02*
G01X71833Y44889D01*
G01X71945Y44851D01*
G01X71981Y44815D01*
G01X72019Y44742D01*
G01X72019Y44630D01*
G01X71981Y44556D01*
G01X71945Y44518D01*
G01X71833Y44483D01*
G01X71501Y44483D01*
G01X72778Y44777D02*
G01X72704Y44851D01*
G01X72595Y44889D01*
G01X72445Y44889D01*
G01X72336Y44851D01*
G01X72263Y44777D01*
G01X72263Y44704D01*
G01X72298Y44630D01*
G01X72336Y44594D01*
G01X72410Y44556D01*
G01X72631Y44483D01*
G01X72704Y44444D01*
G01X72743Y44409D01*
G01X72778Y44335D01*
G01X72778Y44223D01*
G01X72704Y44150D01*
G01X72595Y44112D01*
G01X72445Y44112D01*
G01X72336Y44150D01*
G01X72263Y44223D01*
G01X73245Y44889D02*
G01X73134Y44851D01*
G01X73060Y44742D01*
G01X73022Y44556D01*
G01X73022Y44444D01*
G01X73060Y44262D01*
G01X73134Y44150D01*
G01X73245Y44112D01*
G01X73319Y44112D01*
G01X73428Y44150D01*
G01X73502Y44262D01*
G01X73540Y44444D01*
G01X73540Y44556D01*
G01X73502Y44742D01*
G01X73428Y44851D01*
G01X73319Y44889D01*
G01X73245Y44889D01*
G01X81869Y31046D02*
G01X81869Y30269D01*
G01X81869Y31046D02*
G01X82202Y31046D01*
G01X82311Y31008D01*
G01X82349Y30972D01*
G01X82384Y30899D01*
G01X82384Y30825D01*
G01X82349Y30751D01*
G01X82311Y30713D01*
G01X82202Y30675D01*
G01X81869Y30675D01*
G01X82128Y30675D02*
G01X82384Y30269D01*
G01X83146Y30934D02*
G01X83073Y31008D01*
G01X82961Y31046D01*
G01X82814Y31046D01*
G01X82704Y31008D01*
G01X82628Y30934D01*
G01X82628Y30861D01*
G01X82666Y30787D01*
G01X82704Y30751D01*
G01X82778Y30713D01*
G01X82999Y30640D01*
G01X83073Y30601D01*
G01X83111Y30566D01*
G01X83146Y30492D01*
G01X83146Y30380D01*
G01X83073Y30307D01*
G01X82961Y30269D01*
G01X82814Y30269D01*
G01X82704Y30307D01*
G01X82628Y30380D01*
G01X83649Y31046D02*
G01X83649Y30269D01*
G01X83390Y31046D02*
G01X83908Y31046D01*
G01X76961Y44889D02*
G01X76961Y44112D01*
G01X77205Y44889D02*
G01X77205Y44112D01*
G01X77205Y44889D02*
G01X77723Y44112D01*
G01X77723Y44889D02*
G01X77723Y44112D01*
G01X78226Y44889D02*
G01X78226Y44112D01*
G01X77967Y44889D02*
G01X78482Y44889D01*
G01X79806Y30934D02*
G01X79733Y31008D01*
G01X79621Y31046D01*
G01X79474Y31046D01*
G01X79362Y31008D01*
G01X79288Y30934D01*
G01X79288Y30861D01*
G01X79326Y30787D01*
G01X79362Y30751D01*
G01X79435Y30713D01*
G01X79656Y30640D01*
G01X79733Y30601D01*
G01X79768Y30566D01*
G01X79806Y30492D01*
G01X79806Y30380D01*
G01X79733Y30307D01*
G01X79621Y30269D01*
G01X79474Y30269D01*
G01X79362Y30307D01*
G01X79288Y30380D01*
G01X80604Y30861D02*
G01X80566Y30934D01*
G01X80492Y31008D01*
G01X80418Y31046D01*
G01X80271Y31046D01*
G01X80197Y31008D01*
G01X80124Y30934D01*
G01X80086Y30861D01*
G01X80050Y30751D01*
G01X80050Y30566D01*
G01X80086Y30454D01*
G01X80124Y30380D01*
G01X80197Y30307D01*
G01X80271Y30269D01*
G01X80418Y30269D01*
G01X80492Y30307D01*
G01X80566Y30380D01*
G01X80604Y30454D01*
G01X80848Y31046D02*
G01X80848Y30269D01*
G01X80848Y30269D02*
G01X81290Y30269D01*
G01X77266Y30934D02*
G01X77193Y31008D01*
G01X77081Y31046D01*
G01X76934Y31046D01*
G01X76822Y31008D01*
G01X76748Y30934D01*
G01X76748Y30861D01*
G01X76786Y30787D01*
G01X76822Y30751D01*
G01X76895Y30713D01*
G01X77116Y30640D01*
G01X77193Y30601D01*
G01X77228Y30566D01*
G01X77266Y30492D01*
G01X77266Y30380D01*
G01X77193Y30307D01*
G01X77081Y30269D01*
G01X76934Y30269D01*
G01X76822Y30307D01*
G01X76748Y30380D01*
G01X77510Y31046D02*
G01X77510Y30269D01*
G01X77510Y31046D02*
G01X77767Y31046D01*
G01X77878Y31008D01*
G01X77952Y30934D01*
G01X77990Y30861D01*
G01X78026Y30751D01*
G01X78026Y30566D01*
G01X77990Y30454D01*
G01X77952Y30380D01*
G01X77878Y30307D01*
G01X77767Y30269D01*
G01X77510Y30269D01*
G01X78567Y31046D02*
G01X78270Y30269D01*
G01X78567Y31046D02*
G01X78861Y30269D01*
G01X78381Y30528D02*
G01X78750Y30528D01*
G01X74762Y30861D02*
G01X74726Y30934D01*
G01X74653Y31008D01*
G01X74576Y31046D01*
G01X74429Y31046D01*
G01X74355Y31008D01*
G01X74282Y30934D01*
G01X74246Y30861D01*
G01X74208Y30751D01*
G01X74208Y30566D01*
G01X74246Y30454D01*
G01X74282Y30380D01*
G01X74355Y30307D01*
G01X74429Y30269D01*
G01X74576Y30269D01*
G01X74653Y30307D01*
G01X74726Y30380D01*
G01X74762Y30454D01*
G01X74762Y30566D01*
G01X74576Y30566D02*
G01X74762Y30566D01*
G01X75006Y31046D02*
G01X75006Y30269D01*
G01X75006Y31046D02*
G01X75524Y30269D01*
G01X75524Y31046D02*
G01X75524Y30269D01*
G01X75768Y31046D02*
G01X75768Y30269D01*
G01X75768Y31046D02*
G01X76027Y31046D01*
G01X76136Y31008D01*
G01X76210Y30934D01*
G01X76248Y30861D01*
G01X76283Y30751D01*
G01X76283Y30566D01*
G01X76248Y30454D01*
G01X76210Y30380D01*
G01X76136Y30307D01*
G01X76027Y30269D01*
G01X75768Y30269D01*
G01X69095Y31046D02*
G01X69390Y30269D01*
G01X69687Y31046D02*
G01X69390Y30269D01*
G01X69931Y31046D02*
G01X69966Y31008D01*
G01X70004Y31046D01*
G01X69966Y31081D01*
G01X69931Y31046D01*
G01X69966Y30787D02*
G01X69966Y30269D01*
G01X70248Y30787D02*
G01X70248Y30269D01*
G01X70248Y30640D02*
G01X70358Y30751D01*
G01X70434Y30787D01*
G01X70543Y30787D01*
G01X70617Y30751D01*
G01X70655Y30640D01*
G01X70655Y30269D01*
G54D22*
G01X72517Y42329D02*
G01X72517Y40971D01*
G01X72517Y42329D02*
G01X73098Y42329D01*
G01X73292Y42264D01*
G01X73357Y42200D01*
G01X73422Y42070D01*
G01X73422Y41941D01*
G01X73357Y41812D01*
G01X73292Y41747D01*
G01X73098Y41682D01*
G01X72517Y41682D02*
G01X73098Y41682D01*
G01X73292Y41618D01*
G01X73357Y41553D01*
G01X73422Y41424D01*
G01X73422Y41230D01*
G01X73357Y41100D01*
G01X73292Y41036D01*
G01X73098Y40971D01*
G01X72517Y40971D01*
G01X73848Y42329D02*
G01X73848Y40971D01*
G01X73848Y42329D02*
G01X74754Y40971D01*
G01X74754Y42329D02*
G01X74754Y40971D01*
G01X75568Y42329D02*
G01X75439Y42264D01*
G01X75310Y42135D01*
G01X75245Y42006D01*
G01X75180Y41812D01*
G01X75180Y41488D01*
G01X75245Y41294D01*
G01X75310Y41165D01*
G01X75439Y41036D01*
G01X75568Y40971D01*
G01X75827Y40971D01*
G01X75956Y41036D01*
G01X76085Y41165D01*
G01X76150Y41294D01*
G01X76215Y41488D01*
G01X76215Y41812D01*
G01X76150Y42006D01*
G01X76085Y42135D01*
G01X75956Y42264D01*
G01X75827Y42329D01*
G01X75568Y42329D01*
G01X77029Y42329D02*
G01X76835Y42264D01*
G01X76706Y42070D01*
G01X76641Y41747D01*
G01X76641Y41553D01*
G01X76706Y41230D01*
G01X76835Y41036D01*
G01X77029Y40971D01*
G01X77159Y40971D01*
G01X77353Y41036D01*
G01X77482Y41230D01*
G01X77547Y41553D01*
G01X77547Y41747D01*
G01X77482Y42070D01*
G01X77353Y42264D01*
G01X77159Y42329D01*
G01X77029Y42329D01*
G01X78749Y42329D02*
G01X78103Y42329D01*
G01X78038Y41747D01*
G01X78103Y41812D01*
G01X78297Y41876D01*
G01X78491Y41876D01*
G01X78685Y41812D01*
G01X78814Y41682D01*
G01X78879Y41488D01*
G01X78879Y41359D01*
G01X78814Y41165D01*
G01X78685Y41036D01*
G01X78491Y40971D01*
G01X78297Y40971D01*
G01X78103Y41036D01*
G01X78038Y41100D01*
G01X77973Y41230D01*
G01X80081Y42329D02*
G01X79435Y42329D01*
G01X79370Y41747D01*
G01X79435Y41812D01*
G01X79629Y41876D01*
G01X79822Y41876D01*
G01X80016Y41812D01*
G01X80146Y41682D01*
G01X80210Y41488D01*
G01X80210Y41359D01*
G01X80146Y41165D01*
G01X80016Y41036D01*
G01X79822Y40971D01*
G01X79629Y40971D01*
G01X79435Y41036D01*
G01X79370Y41100D01*
G01X79305Y41230D01*
G54D20*
G01X30353Y19314D02*
G01X30353Y18224D01*
G01X30353Y19314D02*
G01X31028Y19314D01*
G01X30353Y18796D02*
G01X30769Y18796D01*
G01X30353Y18224D02*
G01X31028Y18224D01*
G01X32097Y19159D02*
G01X31993Y19263D01*
G01X31838Y19314D01*
G01X31630Y19314D01*
G01X31475Y19263D01*
G01X31371Y19159D01*
G01X31371Y19055D01*
G01X31422Y18950D01*
G01X31475Y18897D01*
G01X31579Y18846D01*
G01X31889Y18742D01*
G01X31993Y18691D01*
G01X32047Y18638D01*
G01X32097Y18534D01*
G01X32097Y18379D01*
G01X31993Y18275D01*
G01X31838Y18224D01*
G01X31630Y18224D01*
G01X31475Y18275D01*
G01X31371Y18379D01*
G01X33220Y19055D02*
G01X33169Y19159D01*
G01X33065Y19263D01*
G01X32961Y19314D01*
G01X32753Y19314D01*
G01X32649Y19263D01*
G01X32545Y19159D01*
G01X32494Y19055D01*
G01X32440Y18897D01*
G01X32440Y18638D01*
G01X32494Y18483D01*
G01X32545Y18379D01*
G01X32649Y18275D01*
G01X32753Y18224D01*
G01X32961Y18224D01*
G01X33065Y18275D01*
G01X33169Y18379D01*
G01X33220Y18483D01*
G01X33667Y19314D02*
G01X34239Y19314D01*
G01X33926Y18897D01*
G01X34084Y18897D01*
G01X34188Y18846D01*
G01X34239Y18796D01*
G01X34290Y18638D01*
G01X34290Y18534D01*
G01X34239Y18379D01*
G01X34135Y18275D01*
G01X33980Y18224D01*
G01X33822Y18224D01*
G01X33667Y18275D01*
G01X33616Y18326D01*
G01X33563Y18430D01*
G54D19*
G01X29083Y11546D02*
G01X29083Y10114D01*
G01X29083Y11546D02*
G01X29697Y11546D01*
G01X29900Y11478D01*
G01X29969Y11409D01*
G01X30038Y11275D01*
G01X30038Y11137D01*
G01X29969Y11000D01*
G01X29900Y10932D01*
G01X29697Y10863D01*
G01X29083Y10863D02*
G01X29697Y10863D01*
G01X29900Y10797D01*
G01X29969Y10728D01*
G01X30038Y10591D01*
G01X30038Y10388D01*
G01X29969Y10251D01*
G01X29900Y10182D01*
G01X29697Y10114D01*
G01X29083Y10114D01*
G01X30487Y11546D02*
G01X30487Y10114D01*
G01X30487Y11546D02*
G01X31102Y11546D01*
G01X31305Y11478D01*
G01X31374Y11409D01*
G01X31442Y11275D01*
G01X31442Y11137D01*
G01X31374Y11000D01*
G01X31305Y10932D01*
G01X31102Y10863D01*
G01X30487Y10863D01*
G01X30965Y10863D02*
G01X31442Y10114D01*
G01X27495Y15793D02*
G01X27404Y15750D01*
G01X27312Y15659D01*
G01X27266Y15567D01*
G01X27266Y15384D01*
G01X27312Y15295D01*
G01X27404Y15204D01*
G01X27495Y15158D01*
G01X27630Y15113D01*
G01X27858Y15113D01*
G01X27995Y15158D01*
G01X28084Y15204D01*
G01X28176Y15295D01*
G01X28221Y15384D01*
G01X28221Y15567D01*
G01X28176Y15659D01*
G01X28084Y15750D01*
G01X27995Y15793D01*
G01X27858Y15793D01*
G01X27858Y15567D02*
G01X27858Y15793D01*
G01X27266Y16095D02*
G01X28221Y16095D01*
G01X27266Y16095D02*
G01X28221Y16730D01*
G01X27266Y16730D02*
G01X28221Y16730D01*
G01X27266Y17030D02*
G01X28221Y17030D01*
G01X27266Y17030D02*
G01X27266Y17348D01*
G01X27312Y17485D01*
G01X27404Y17576D01*
G01X27495Y17622D01*
G01X27630Y17668D01*
G01X27858Y17668D01*
G01X27995Y17622D01*
G01X28084Y17576D01*
G01X28176Y17485D01*
G01X28221Y17348D01*
G01X28221Y17030D01*
G01X29806Y15113D02*
G01X30761Y15476D01*
G01X29806Y15839D02*
G01X30761Y15476D01*
G01X30035Y16822D02*
G01X29944Y16776D01*
G01X29852Y16685D01*
G01X29806Y16593D01*
G01X29806Y16413D01*
G01X29852Y16322D01*
G01X29944Y16230D01*
G01X30035Y16184D01*
G01X30170Y16139D01*
G01X30398Y16139D01*
G01X30535Y16184D01*
G01X30624Y16230D01*
G01X30716Y16322D01*
G01X30761Y16413D01*
G01X30761Y16593D01*
G01X30716Y16685D01*
G01X30624Y16776D01*
G01X30535Y16822D01*
G01X30035Y17802D02*
G01X29944Y17759D01*
G01X29852Y17668D01*
G01X29806Y17576D01*
G01X29806Y17393D01*
G01X29852Y17305D01*
G01X29944Y17213D01*
G01X30035Y17167D01*
G01X30170Y17122D01*
G01X30398Y17122D01*
G01X30535Y17167D01*
G01X30624Y17213D01*
G01X30716Y17305D01*
G01X30761Y17393D01*
G01X30761Y17576D01*
G01X30716Y17668D01*
G01X30624Y17759D01*
G01X30535Y17802D01*
G01X32484Y15750D02*
G01X32392Y15659D01*
G01X32346Y15521D01*
G01X32346Y15339D01*
G01X32392Y15204D01*
G01X32484Y15113D01*
G01X32575Y15113D01*
G01X32666Y15158D01*
G01X32710Y15204D01*
G01X32755Y15295D01*
G01X32847Y15567D01*
G01X32893Y15659D01*
G01X32938Y15704D01*
G01X33030Y15750D01*
G01X33164Y15750D01*
G01X33256Y15659D01*
G01X33301Y15521D01*
G01X33301Y15339D01*
G01X33256Y15204D01*
G01X33164Y15113D01*
G01X32346Y16050D02*
G01X33301Y16050D01*
G01X32575Y17030D02*
G01X32484Y16984D01*
G01X32392Y16896D01*
G01X32346Y16804D01*
G01X32346Y16621D01*
G01X32392Y16530D01*
G01X32484Y16441D01*
G01X32575Y16395D01*
G01X32710Y16349D01*
G01X32938Y16349D01*
G01X33075Y16395D01*
G01X33164Y16441D01*
G01X33256Y16530D01*
G01X33301Y16621D01*
G01X33301Y16804D01*
G01X33256Y16896D01*
G01X33164Y16984D01*
G01X33075Y17030D01*
G01X32938Y17030D01*
G01X32938Y16804D02*
G01X32938Y17030D01*
G54D20*
G01X30353Y29474D02*
G01X30353Y28384D01*
G01X30353Y29474D02*
G01X31028Y29474D01*
G01X30353Y28956D02*
G01X30769Y28956D01*
G01X30353Y28384D02*
G01X31028Y28384D01*
G01X32097Y29319D02*
G01X31993Y29423D01*
G01X31838Y29474D01*
G01X31630Y29474D01*
G01X31475Y29423D01*
G01X31371Y29319D01*
G01X31371Y29215D01*
G01X31422Y29110D01*
G01X31475Y29057D01*
G01X31579Y29006D01*
G01X31889Y28902D01*
G01X31993Y28851D01*
G01X32047Y28798D01*
G01X32097Y28694D01*
G01X32097Y28539D01*
G01X31993Y28435D01*
G01X31838Y28384D01*
G01X31630Y28384D01*
G01X31475Y28435D01*
G01X31371Y28539D01*
G01X33220Y29215D02*
G01X33169Y29319D01*
G01X33065Y29423D01*
G01X32961Y29474D01*
G01X32753Y29474D01*
G01X32649Y29423D01*
G01X32545Y29319D01*
G01X32494Y29215D01*
G01X32440Y29057D01*
G01X32440Y28798D01*
G01X32494Y28643D01*
G01X32545Y28539D01*
G01X32649Y28435D01*
G01X32753Y28384D01*
G01X32961Y28384D01*
G01X33065Y28435D01*
G01X33169Y28539D01*
G01X33220Y28643D01*
G01X33616Y29215D02*
G01X33616Y29265D01*
G01X33667Y29370D01*
G01X33718Y29423D01*
G01X33822Y29474D01*
G01X34030Y29474D01*
G01X34135Y29423D01*
G01X34188Y29370D01*
G01X34239Y29265D01*
G01X34239Y29161D01*
G01X34188Y29057D01*
G01X34084Y28902D01*
G01X33563Y28384D01*
G01X34290Y28384D01*
G54D19*
G01X29083Y21706D02*
G01X29083Y20274D01*
G01X29083Y21706D02*
G01X29697Y21706D01*
G01X29900Y21638D01*
G01X29969Y21569D01*
G01X30038Y21435D01*
G01X30038Y21297D01*
G01X29969Y21160D01*
G01X29900Y21092D01*
G01X29697Y21023D01*
G01X29083Y21023D02*
G01X29697Y21023D01*
G01X29900Y20957D01*
G01X29969Y20888D01*
G01X30038Y20751D01*
G01X30038Y20548D01*
G01X29969Y20411D01*
G01X29900Y20342D01*
G01X29697Y20274D01*
G01X29083Y20274D01*
G01X30487Y21706D02*
G01X30487Y20274D01*
G01X30487Y20274D02*
G01X31305Y20274D01*
G01X27495Y25953D02*
G01X27404Y25910D01*
G01X27312Y25819D01*
G01X27266Y25727D01*
G01X27266Y25544D01*
G01X27312Y25455D01*
G01X27404Y25364D01*
G01X27495Y25318D01*
G01X27630Y25273D01*
G01X27858Y25273D01*
G01X27995Y25318D01*
G01X28084Y25364D01*
G01X28176Y25455D01*
G01X28221Y25544D01*
G01X28221Y25727D01*
G01X28176Y25819D01*
G01X28084Y25910D01*
G01X27995Y25953D01*
G01X27858Y25953D01*
G01X27858Y25727D02*
G01X27858Y25953D01*
G01X27266Y26255D02*
G01X28221Y26255D01*
G01X27266Y26255D02*
G01X28221Y26890D01*
G01X27266Y26890D02*
G01X28221Y26890D01*
G01X27266Y27190D02*
G01X28221Y27190D01*
G01X27266Y27190D02*
G01X27266Y27508D01*
G01X27312Y27645D01*
G01X27404Y27736D01*
G01X27495Y27782D01*
G01X27630Y27828D01*
G01X27858Y27828D01*
G01X27995Y27782D01*
G01X28084Y27736D01*
G01X28176Y27645D01*
G01X28221Y27508D01*
G01X28221Y27190D01*
G01X29806Y25273D02*
G01X30761Y25636D01*
G01X29806Y25999D02*
G01X30761Y25636D01*
G01X30035Y26982D02*
G01X29944Y26936D01*
G01X29852Y26845D01*
G01X29806Y26753D01*
G01X29806Y26573D01*
G01X29852Y26482D01*
G01X29944Y26390D01*
G01X30035Y26344D01*
G01X30170Y26299D01*
G01X30398Y26299D01*
G01X30535Y26344D01*
G01X30624Y26390D01*
G01X30716Y26482D01*
G01X30761Y26573D01*
G01X30761Y26753D01*
G01X30716Y26845D01*
G01X30624Y26936D01*
G01X30535Y26982D01*
G01X30035Y27962D02*
G01X29944Y27919D01*
G01X29852Y27828D01*
G01X29806Y27736D01*
G01X29806Y27553D01*
G01X29852Y27465D01*
G01X29944Y27373D01*
G01X30035Y27327D01*
G01X30170Y27282D01*
G01X30398Y27282D01*
G01X30535Y27327D01*
G01X30624Y27373D01*
G01X30716Y27465D01*
G01X30761Y27553D01*
G01X30761Y27736D01*
G01X30716Y27828D01*
G01X30624Y27919D01*
G01X30535Y27962D01*
G01X32484Y25910D02*
G01X32392Y25819D01*
G01X32346Y25681D01*
G01X32346Y25499D01*
G01X32392Y25364D01*
G01X32484Y25273D01*
G01X32575Y25273D01*
G01X32666Y25318D01*
G01X32710Y25364D01*
G01X32755Y25455D01*
G01X32847Y25727D01*
G01X32893Y25819D01*
G01X32938Y25864D01*
G01X33030Y25910D01*
G01X33164Y25910D01*
G01X33256Y25819D01*
G01X33301Y25681D01*
G01X33301Y25499D01*
G01X33256Y25364D01*
G01X33164Y25273D01*
G01X32346Y26210D02*
G01X33301Y26210D01*
G01X32575Y27190D02*
G01X32484Y27144D01*
G01X32392Y27056D01*
G01X32346Y26964D01*
G01X32346Y26781D01*
G01X32392Y26690D01*
G01X32484Y26601D01*
G01X32575Y26555D01*
G01X32710Y26509D01*
G01X32938Y26509D01*
G01X33075Y26555D01*
G01X33164Y26601D01*
G01X33256Y26690D01*
G01X33301Y26781D01*
G01X33301Y26964D01*
G01X33256Y27056D01*
G01X33164Y27144D01*
G01X33075Y27190D01*
G01X32938Y27190D01*
G01X32938Y26964D02*
G01X32938Y27190D01*
G54D20*
G01X30353Y39888D02*
G01X30353Y38798D01*
G01X30353Y39888D02*
G01X31028Y39888D01*
G01X30353Y39370D02*
G01X30769Y39370D01*
G01X30353Y38798D02*
G01X31028Y38798D01*
G01X32097Y39733D02*
G01X31993Y39837D01*
G01X31838Y39888D01*
G01X31630Y39888D01*
G01X31475Y39837D01*
G01X31371Y39733D01*
G01X31371Y39629D01*
G01X31422Y39524D01*
G01X31475Y39471D01*
G01X31579Y39420D01*
G01X31889Y39316D01*
G01X31993Y39265D01*
G01X32047Y39212D01*
G01X32097Y39108D01*
G01X32097Y38953D01*
G01X31993Y38849D01*
G01X31838Y38798D01*
G01X31630Y38798D01*
G01X31475Y38849D01*
G01X31371Y38953D01*
G01X33220Y39629D02*
G01X33169Y39733D01*
G01X33065Y39837D01*
G01X32961Y39888D01*
G01X32753Y39888D01*
G01X32649Y39837D01*
G01X32545Y39733D01*
G01X32494Y39629D01*
G01X32440Y39471D01*
G01X32440Y39212D01*
G01X32494Y39057D01*
G01X32545Y38953D01*
G01X32649Y38849D01*
G01X32753Y38798D01*
G01X32961Y38798D01*
G01X33065Y38849D01*
G01X33169Y38953D01*
G01X33220Y39057D01*
G01X33563Y39679D02*
G01X33667Y39733D01*
G01X33822Y39888D01*
G01X33822Y38798D01*
G54D19*
G01X29083Y31993D02*
G01X29083Y30561D01*
G01X29083Y31993D02*
G01X29969Y31993D01*
G01X29083Y31310D02*
G01X29629Y31310D01*
G01X30419Y31993D02*
G01X30419Y30561D01*
G01X30419Y31993D02*
G01X31033Y31993D01*
G01X31236Y31925D01*
G01X31305Y31856D01*
G01X31374Y31722D01*
G01X31374Y31584D01*
G01X31305Y31447D01*
G01X31236Y31379D01*
G01X31033Y31310D01*
G01X30419Y31310D01*
G01X30896Y31310D02*
G01X31374Y30561D01*
G01X27495Y36367D02*
G01X27404Y36324D01*
G01X27312Y36233D01*
G01X27266Y36141D01*
G01X27266Y35958D01*
G01X27312Y35869D01*
G01X27404Y35778D01*
G01X27495Y35732D01*
G01X27630Y35687D01*
G01X27858Y35687D01*
G01X27995Y35732D01*
G01X28084Y35778D01*
G01X28176Y35869D01*
G01X28221Y35958D01*
G01X28221Y36141D01*
G01X28176Y36233D01*
G01X28084Y36324D01*
G01X27995Y36367D01*
G01X27858Y36367D01*
G01X27858Y36141D02*
G01X27858Y36367D01*
G01X27266Y36669D02*
G01X28221Y36669D01*
G01X27266Y36669D02*
G01X28221Y37304D01*
G01X27266Y37304D02*
G01X28221Y37304D01*
G01X27266Y37604D02*
G01X28221Y37604D01*
G01X27266Y37604D02*
G01X27266Y37922D01*
G01X27312Y38059D01*
G01X27404Y38150D01*
G01X27495Y38196D01*
G01X27630Y38242D01*
G01X27858Y38242D01*
G01X27995Y38196D01*
G01X28084Y38150D01*
G01X28176Y38059D01*
G01X28221Y37922D01*
G01X28221Y37604D01*
G01X29806Y35687D02*
G01X30761Y36050D01*
G01X29806Y36413D02*
G01X30761Y36050D01*
G01X30035Y37396D02*
G01X29944Y37350D01*
G01X29852Y37259D01*
G01X29806Y37167D01*
G01X29806Y36987D01*
G01X29852Y36896D01*
G01X29944Y36804D01*
G01X30035Y36758D01*
G01X30170Y36713D01*
G01X30398Y36713D01*
G01X30535Y36758D01*
G01X30624Y36804D01*
G01X30716Y36896D01*
G01X30761Y36987D01*
G01X30761Y37167D01*
G01X30716Y37259D01*
G01X30624Y37350D01*
G01X30535Y37396D01*
G01X30035Y38376D02*
G01X29944Y38333D01*
G01X29852Y38242D01*
G01X29806Y38150D01*
G01X29806Y37967D01*
G01X29852Y37879D01*
G01X29944Y37787D01*
G01X30035Y37741D01*
G01X30170Y37696D01*
G01X30398Y37696D01*
G01X30535Y37741D01*
G01X30624Y37787D01*
G01X30716Y37879D01*
G01X30761Y37967D01*
G01X30761Y38150D01*
G01X30716Y38242D01*
G01X30624Y38333D01*
G01X30535Y38376D01*
G01X32484Y36324D02*
G01X32392Y36233D01*
G01X32346Y36095D01*
G01X32346Y35913D01*
G01X32392Y35778D01*
G01X32484Y35687D01*
G01X32575Y35687D01*
G01X32666Y35732D01*
G01X32710Y35778D01*
G01X32755Y35869D01*
G01X32847Y36141D01*
G01X32893Y36233D01*
G01X32938Y36278D01*
G01X33030Y36324D01*
G01X33164Y36324D01*
G01X33256Y36233D01*
G01X33301Y36095D01*
G01X33301Y35913D01*
G01X33256Y35778D01*
G01X33164Y35687D01*
G01X32346Y36624D02*
G01X33301Y36624D01*
G01X32575Y37604D02*
G01X32484Y37558D01*
G01X32392Y37470D01*
G01X32346Y37378D01*
G01X32346Y37195D01*
G01X32392Y37104D01*
G01X32484Y37015D01*
G01X32575Y36969D01*
G01X32710Y36923D01*
G01X32938Y36923D01*
G01X33075Y36969D01*
G01X33164Y37015D01*
G01X33256Y37104D01*
G01X33301Y37195D01*
G01X33301Y37378D01*
G01X33256Y37470D01*
G01X33164Y37558D01*
G01X33075Y37604D01*
G01X32938Y37604D01*
G01X32938Y37378D02*
G01X32938Y37604D01*
G54D20*
G01X30353Y50048D02*
G01X30353Y48958D01*
G01X30353Y50048D02*
G01X31028Y50048D01*
G01X30353Y49530D02*
G01X30769Y49530D01*
G01X30353Y48958D02*
G01X31028Y48958D01*
G01X32097Y49893D02*
G01X31993Y49997D01*
G01X31838Y50048D01*
G01X31630Y50048D01*
G01X31475Y49997D01*
G01X31371Y49893D01*
G01X31371Y49789D01*
G01X31422Y49684D01*
G01X31475Y49631D01*
G01X31579Y49580D01*
G01X31889Y49476D01*
G01X31993Y49425D01*
G01X32047Y49372D01*
G01X32097Y49268D01*
G01X32097Y49113D01*
G01X31993Y49009D01*
G01X31838Y48958D01*
G01X31630Y48958D01*
G01X31475Y49009D01*
G01X31371Y49113D01*
G01X33220Y49789D02*
G01X33169Y49893D01*
G01X33065Y49997D01*
G01X32961Y50048D01*
G01X32753Y50048D01*
G01X32649Y49997D01*
G01X32545Y49893D01*
G01X32494Y49789D01*
G01X32440Y49631D01*
G01X32440Y49372D01*
G01X32494Y49217D01*
G01X32545Y49113D01*
G01X32649Y49009D01*
G01X32753Y48958D01*
G01X32961Y48958D01*
G01X33065Y49009D01*
G01X33169Y49113D01*
G01X33220Y49217D01*
G01X33875Y50048D02*
G01X33718Y49997D01*
G01X33616Y49839D01*
G01X33563Y49580D01*
G01X33563Y49425D01*
G01X33616Y49164D01*
G01X33718Y49009D01*
G01X33875Y48958D01*
G01X33980Y48958D01*
G01X34135Y49009D01*
G01X34239Y49164D01*
G01X34290Y49425D01*
G01X34290Y49580D01*
G01X34239Y49839D01*
G01X34135Y49997D01*
G01X33980Y50048D01*
G01X33875Y50048D01*
G54D19*
G01X29083Y42280D02*
G01X29083Y40848D01*
G01X29083Y42280D02*
G01X29969Y42280D01*
G01X29083Y41597D02*
G01X29629Y41597D01*
G01X30419Y42280D02*
G01X30419Y40848D01*
G01X30419Y40848D02*
G01X31236Y40848D01*
G01X27495Y46527D02*
G01X27404Y46484D01*
G01X27312Y46393D01*
G01X27266Y46301D01*
G01X27266Y46118D01*
G01X27312Y46029D01*
G01X27404Y45938D01*
G01X27495Y45892D01*
G01X27630Y45847D01*
G01X27858Y45847D01*
G01X27995Y45892D01*
G01X28084Y45938D01*
G01X28176Y46029D01*
G01X28221Y46118D01*
G01X28221Y46301D01*
G01X28176Y46393D01*
G01X28084Y46484D01*
G01X27995Y46527D01*
G01X27858Y46527D01*
G01X27858Y46301D02*
G01X27858Y46527D01*
G01X27266Y46829D02*
G01X28221Y46829D01*
G01X27266Y46829D02*
G01X28221Y47464D01*
G01X27266Y47464D02*
G01X28221Y47464D01*
G01X27266Y47764D02*
G01X28221Y47764D01*
G01X27266Y47764D02*
G01X27266Y48082D01*
G01X27312Y48219D01*
G01X27404Y48310D01*
G01X27495Y48356D01*
G01X27630Y48402D01*
G01X27858Y48402D01*
G01X27995Y48356D01*
G01X28084Y48310D01*
G01X28176Y48219D01*
G01X28221Y48082D01*
G01X28221Y47764D01*
G01X29806Y45847D02*
G01X30761Y46210D01*
G01X29806Y46573D02*
G01X30761Y46210D01*
G01X30035Y47556D02*
G01X29944Y47510D01*
G01X29852Y47419D01*
G01X29806Y47327D01*
G01X29806Y47147D01*
G01X29852Y47056D01*
G01X29944Y46964D01*
G01X30035Y46918D01*
G01X30170Y46873D01*
G01X30398Y46873D01*
G01X30535Y46918D01*
G01X30624Y46964D01*
G01X30716Y47056D01*
G01X30761Y47147D01*
G01X30761Y47327D01*
G01X30716Y47419D01*
G01X30624Y47510D01*
G01X30535Y47556D01*
G01X30035Y48536D02*
G01X29944Y48493D01*
G01X29852Y48402D01*
G01X29806Y48310D01*
G01X29806Y48127D01*
G01X29852Y48039D01*
G01X29944Y47947D01*
G01X30035Y47901D01*
G01X30170Y47856D01*
G01X30398Y47856D01*
G01X30535Y47901D01*
G01X30624Y47947D01*
G01X30716Y48039D01*
G01X30761Y48127D01*
G01X30761Y48310D01*
G01X30716Y48402D01*
G01X30624Y48493D01*
G01X30535Y48536D01*
G01X32484Y46484D02*
G01X32392Y46393D01*
G01X32346Y46255D01*
G01X32346Y46073D01*
G01X32392Y45938D01*
G01X32484Y45847D01*
G01X32575Y45847D01*
G01X32666Y45892D01*
G01X32710Y45938D01*
G01X32755Y46029D01*
G01X32847Y46301D01*
G01X32893Y46393D01*
G01X32938Y46438D01*
G01X33030Y46484D01*
G01X33164Y46484D01*
G01X33256Y46393D01*
G01X33301Y46255D01*
G01X33301Y46073D01*
G01X33256Y45938D01*
G01X33164Y45847D01*
G01X32346Y46784D02*
G01X33301Y46784D01*
G01X32575Y47764D02*
G01X32484Y47718D01*
G01X32392Y47630D01*
G01X32346Y47538D01*
G01X32346Y47355D01*
G01X32392Y47264D01*
G01X32484Y47175D01*
G01X32575Y47129D01*
G01X32710Y47083D01*
G01X32938Y47083D01*
G01X33075Y47129D01*
G01X33164Y47175D01*
G01X33256Y47264D01*
G01X33301Y47355D01*
G01X33301Y47538D01*
G01X33256Y47630D01*
G01X33164Y47718D01*
G01X33075Y47764D01*
G01X32938Y47764D01*
G01X32938Y47538D02*
G01X32938Y47764D01*
G54D20*
G01X46753Y47376D02*
G01X46700Y47480D01*
G01X46596Y47584D01*
G01X46494Y47635D01*
G01X46286Y47635D01*
G01X46182Y47584D01*
G01X46078Y47480D01*
G01X46024Y47376D01*
G01X45974Y47218D01*
G01X45974Y46959D01*
G01X46024Y46804D01*
G01X46078Y46700D01*
G01X46182Y46596D01*
G01X46286Y46545D01*
G01X46494Y46545D01*
G01X46596Y46596D01*
G01X46700Y46700D01*
G01X46753Y46804D01*
G01X47096Y47635D02*
G01X47096Y46545D01*
G01X47096Y47635D02*
G01X47564Y47635D01*
G01X47718Y47584D01*
G01X47772Y47531D01*
G01X47823Y47426D01*
G01X47823Y47271D01*
G01X47772Y47167D01*
G01X47718Y47117D01*
G01X47564Y47063D01*
G01X47096Y47063D01*
G01X48166Y47635D02*
G01X48166Y46855D01*
G01X48219Y46700D01*
G01X48323Y46596D01*
G01X48478Y46545D01*
G01X48582Y46545D01*
G01X48737Y46596D01*
G01X48841Y46700D01*
G01X48895Y46855D01*
G01X48895Y47635D01*
G54D10*
G75*
G01X63119Y45085D02*
G02X65659Y47625I2540J0D01*
G01*
G75*
G01X65659Y27305D02*
G02X63119Y29845I0J2540D01*
G01*
G75*
G01X89789Y29845D02*
G02X87249Y27305I-2540J0D01*
G01*
G75*
G01X87249Y47625D02*
G02X89789Y45085I0J-2540D01*
G01*
G54D19*
G75*
G01X67909Y45085D02*
G03X67909Y45079I-2250J-3D01*
G01*
G75*
G01X67909Y29845D02*
G03X67909Y29839I-2250J-3D01*
G01*
G75*
G01X89499Y45085D02*
G03X89499Y45079I-2250J-3D01*
G01*
G75*
G01X89499Y29845D02*
G03X89499Y29839I-2250J-3D01*
G01*
G54D10*
G75*
G01X77544Y37465D02*
G03X77544Y37465I-1090J0D01*
G01*
M00*
M02*
