G04 Layer: BottomLayer*
G04 EasyEDA v6.4.7, 2020-12-21T22:23:32--5:00*
G04 5785efef075e4ba8b8defaa2645dbc96,facf1f7924c443e9b0c18128cc6508d2,10*
G04 Gerber Generator version 0.2*
G04 Scale: 100 percent, Rotated: No, Reflected: No *
G04 Dimensions in millimeters *
G04 leading zeros omitted , absolute positions ,3 integer and 3 decimal *
%FSLAX33Y33*%
%MOMM*%
G90*
D02*

%ADD10C,0.254000*%
%ADD12C,2.999994*%
%ADD13C,3.999992*%
%ADD14C,1.930400*%
%ADD16C,1.524000*%
%ADD17C,1.879600*%

%LPD*%
G54D10*
G01X53594Y18288D02*
G01X79629Y18288D01*
G01X81153Y19812D01*
G01X81153Y27686D01*
G01X80264Y28575D01*
G01X51689Y48260D02*
G01X53975Y48260D01*
G01X56388Y45847D01*
G01X56388Y41402D01*
G01X53594Y38608D01*
G01X38354Y41148D02*
G01X35306Y41148D01*
G01X35306Y52451D01*
G01X59817Y52451D01*
G01X63627Y48641D01*
G01X61468Y46482D01*
G01X61468Y27432D01*
G01X63119Y25781D01*
G01X69469Y25781D01*
G01X69469Y27940D01*
G01X70104Y28575D01*
G54D12*
G01X51689Y48260D03*
G01X58674Y48260D03*
G54D13*
G01X65659Y45085D03*
G01X65659Y29845D03*
G54D14*
G01X82804Y28575D03*
G01X80264Y28575D03*
G01X77724Y28575D03*
G01X75184Y28575D03*
G01X72644Y28575D03*
G01X70104Y28575D03*
G01X80264Y46355D03*
G01X77724Y46355D03*
G01X75184Y46355D03*
G01X72644Y46355D03*
G54D13*
G01X87249Y45085D03*
G01X87249Y29845D03*
G36*
G01X27051Y14097D02*
G01X28575Y14097D01*
G01X28575Y12573D01*
G01X27051Y12573D01*
G01X27051Y14097D01*
G37*
G54D16*
G01X30353Y13335D03*
G01X32893Y13335D03*
G36*
G01X27051Y24257D02*
G01X28575Y24257D01*
G01X28575Y22733D01*
G01X27051Y22733D01*
G01X27051Y24257D01*
G37*
G01X30353Y23495D03*
G01X32893Y23495D03*
G36*
G01X27051Y34671D02*
G01X28575Y34671D01*
G01X28575Y33147D01*
G01X27051Y33147D01*
G01X27051Y34671D01*
G37*
G01X30353Y33909D03*
G01X32893Y33909D03*
G36*
G01X27051Y44831D02*
G01X28575Y44831D01*
G01X28575Y43307D01*
G01X27051Y43307D01*
G01X27051Y44831D01*
G37*
G01X30353Y44069D03*
G01X32893Y44069D03*
G54D17*
G01X38354Y43688D03*
G01X38354Y41148D03*
G01X38354Y38608D03*
G01X38354Y36068D03*
G01X38354Y33528D03*
G01X38354Y30988D03*
G01X38354Y28448D03*
G01X38354Y25908D03*
G01X38354Y23368D03*
G01X38354Y20828D03*
G01X38354Y18288D03*
G01X38354Y15748D03*
G01X38354Y13208D03*
G01X38354Y10668D03*
G01X40894Y10668D03*
G01X43434Y10668D03*
G01X45974Y10668D03*
G01X48514Y10668D03*
G01X51054Y10668D03*
G01X53594Y10668D03*
G01X53594Y13208D03*
G01X53594Y15748D03*
G01X53594Y18288D03*
G01X53594Y20828D03*
G01X53594Y23368D03*
G01X53594Y25908D03*
G01X53594Y28448D03*
G01X53594Y30988D03*
G01X53594Y33528D03*
G01X53594Y36068D03*
G01X53594Y38608D03*
G01X53594Y41148D03*
G01X53594Y43688D03*
M00*
M02*
